<?xml version="1.0" encoding="UTF-8"?><svg id="Layer_2" xmlns="http://www.w3.org/2000/svg" viewBox="0 0 112.56 81.63"><defs><style>.cls-1{fill:#231f20;}.cls-2{fill:#fff;}</style></defs><g id="Layer_1-2"><path class="cls-2" d="M11.04,62.75c-.39-17.17,6.63-38.24,17.56-43.32s32.39-4.29,37.85,1.95,11.32,13.66,11.71,20.68l.39,7.02L11.04,62.75Z"/><path class="cls-1" d="M10.56,63.36v-.6c-.4-16.89,6.32-38.43,17.84-43.78,11.44-5.31,33-4.15,38.44,2.08,5.92,6.76,11.44,13.98,11.83,20.98l.42,7.46L10.56,63.36ZM46.73,16.64c-6.48,0-13.17,1.05-17.91,3.25-10.67,4.95-17.49,25.7-17.28,42.25l66.5-13.45-.37-6.59c-.37-6.7-5.79-13.76-11.58-20.38-2.89-3.31-10.94-5.08-19.35-5.08Z"/><path class="cls-2" d="M90.65,64.7s15.61-5.85,11.71-8.2-23.8-7.41-23.8-7.41L11.04,62.75l26.15,7.8s35.12-14.83,48-13.27,5.46,7.41,5.46,7.41Z"/><path class="cls-1" d="M37.22,71.09l-28.24-8.43,69.59-14.08.11.03c.82.21,20.02,5.12,23.94,7.47.78.47.9,1.05.86,1.45-.26,2.85-10.58,6.86-12.65,7.64l-2.98,1.12,2.49-1.98c.65-.52,2.26-2.16,1.87-3.53-.28-1.01-1.75-2.35-7.09-2.99-12.6-1.53-47.39,13.08-47.75,13.23l-.17.07ZM13.1,62.84l24.06,7.18c2.94-1.23,35.54-14.75,48.09-13.23,4.8.58,7.39,1.8,7.93,3.72.3,1.07-.13,2.11-.69,2.94,4.59-1.89,9.87-4.58,10-6,0-.07.02-.26-.38-.51-3.65-2.19-21.96-6.92-23.56-7.33L13.1,62.84Z"/><ellipse class="cls-2" cx="46.17" cy="14.36" rx="8.59" ry="4.29"/><path class="cls-1" d="M46.17,19.15c-5.09,0-9.08-2.11-9.08-4.79s3.99-4.79,9.08-4.79,9.09,2.1,9.09,4.79-3.99,4.79-9.09,4.79ZM46.17,10.57c-4.38,0-8.08,1.74-8.08,3.79s3.7,3.79,8.08,3.79,8.09-1.74,8.09-3.79-3.7-3.79-8.09-3.79Z"/><path class="cls-1" d="M42.12,34.14c1.21.4,1.8.61,2.97,1.05.42,1.99.63,2.99,1.05,4.98-.29.31-.44.46-.73.77.39.15.59.23.97.38.42,1.98.63,2.98,1.04,4.96-.75.84-1.11,1.27-1.81,2.13-3.19.78-4.77,1.27-7.85,2.44-.31-.82-.46-1.22-.77-2.04.42-.16.63-.24,1.05-.39-1.4-3.88-2.1-5.83-3.51-9.71-.48.17-.72.26-1.2.45-.31-.82-.46-1.22-.77-2.04,3.76-1.43,5.68-2.03,9.57-2.98ZM39,41.5c1.54-.48,2.31-.7,3.87-1.1-.4-1.58-.6-2.36-1.01-3.94-1.64.42-2.45.65-4.07,1.16.49,1.55.73,2.33,1.22,3.88ZM43.42,42.51c-1.52.39-2.27.6-3.77,1.07.49,1.55.73,2.33,1.22,3.88,1.41-.44,2.13-.64,3.56-1.01-.4-1.58-.6-2.36-1.01-3.94Z"/><path class="cls-1" d="M55.91,31.98c1.12.6,1.67.9,2.74,1.54.17,4.53.25,6.8.42,11.33-.88.7-1.31,1.06-2.14,1.79-2.18.15-3.26.27-5.42.6-.97-.53-1.47-.79-2.48-1.28-.83-4.46-1.24-6.69-2.07-11.15.91-.85,1.38-1.27,2.34-2.1,2.63-.4,3.95-.55,6.6-.73ZM55.28,34.22c-1.94.16-2.91.26-4.84.54.58,4.09.87,6.13,1.45,10.22,1.68-.24,2.52-.33,4.21-.47-.33-4.12-.49-6.17-.82-10.29Z"/><path class="cls-1" d="M63.96,44.33c.05-1.61.08-2.42.14-4.03-1.29-2.57-1.99-3.84-3.52-6.34-.4,0-.6,0-1,.02l-.06-2.19c2.14-.05,3.21-.05,5.35.04-.03.87-.05,1.31-.09,2.19-.31-.01-.46-.02-.77-.03.77,1.45,1.14,2.18,1.83,3.64.89-1.38,1.35-2.06,2.32-3.41-.25-.02-.37-.03-.61-.05.07-.87.1-1.31.16-2.18,2.14.16,3.21.27,5.35.58-.12.87-.18,1.3-.31,2.17-.45-.06-.68-.09-1.13-.15-1.88,2.3-2.76,3.49-4.4,5.89-.12,1.61-.18,2.41-.31,4.02.37.03.55.04.92.08-.08.87-.12,1.3-.2,2.17-1.84-.17-2.77-.22-4.61-.26.02-.87.03-1.31.05-2.18.35,0,.52.01.87.02Z"/><path class="cls-1" d="M38.1,81.63l-.39-.92,2.65-1.12c2.55-1.08,5.49-2.25,8.5-3.39l.35.94c-3,1.14-5.92,2.3-8.46,3.38l-2.65,1.12ZM26.26,78.69l-11.52-3.44.29-.96,11.52,3.44-.29.96ZM93.1,74.39l-.8-1.42c-1.12-1.45-3.58-3.43-8.7-4.35l.18-.98c5.43.98,8.08,3.14,9.35,4.78l.84,1.48-.87.49ZM3.11,73.54H.75l-.75-10.55,1-.06.69,9.61h1.43v1ZM60.51,73.12l-.31-.95c4.28-1.41,8.16-2.57,11.55-3.42l.25.97c-3.36.85-7.22,2-11.48,3.4ZM104.57,69.86l-.51-.86c4.37-2.62,6.69-5.21,7.53-8.42l.97.25c-.9,3.43-3.44,6.3-7.98,9.03ZM1.31,51.04l-.99-.12c.48-4.06,1.35-8.03,2.59-11.8l.95.31c-1.22,3.71-2.07,7.61-2.54,11.6ZM108.64,50.08c-.58-.54-1.22-1.03-1.91-1.44-1.85-1.11-5.58-2.54-11.08-4.24l.29-.96c5.58,1.72,9.38,3.18,11.3,4.33.75.45,1.45.98,2.08,1.57l-.68.73ZM86.37,38.31c-.94-3.8-2.37-7.52-4.25-11.06l.88-.47c1.92,3.61,3.37,7.41,4.34,11.29l-.97.24ZM8.73,28.61l-.86-.51c2.03-3.46,4.45-6.72,7.19-9.71l.74.68c-2.7,2.93-5.07,6.14-7.06,9.54ZM75.28,17.6c-2.84-3.01-5.99-5.4-9.37-7.12l.45-.89c3.49,1.77,6.73,4.23,9.65,7.32l-.73.69ZM24.67,11.19l-.59-.81c1.48-1.08,3.04-2.11,4.63-3.07.41-.61.87-1.2,1.37-1.74.94-1.01,2.06-1.91,3.32-2.65l.51.86c-1.18.7-2.22,1.53-3.1,2.47-.49.53-.94,1.1-1.33,1.7l-.06.1-.1.06c-1.6.97-3.17,2-4.66,3.08ZM56.59,3.37c-2.97-1.55-6.79-2.37-11.04-2.37h-.36s-.01-1-.01-1h.37c4.47,0,8.34.83,11.5,2.48l-.46.89Z"/></g></svg>