<?xml version="1.0" encoding="UTF-8"?><svg id="Layer_2" xmlns="http://www.w3.org/2000/svg" viewBox="0 0 195.91 456.61"><defs><style>.cls-1{fill:#231f20;}.cls-2{fill:#fff;}</style></defs><g id="Layer_1-2"><path class="cls-2" d="M71.52,52.06c-1.85-14.33-13.41-29.13-27.75-34.68-14.33-5.55-30.98-5.55-28.21-2.31s25.43,23.58,29.59,29.13,26.36,7.86,26.36,7.86Z"/><path class="cls-1" d="M72.09,52.63l-.63-.07c-.92-.1-22.46-2.4-26.71-8.06-2.55-3.39-12.11-12.4-19.79-19.64-4.87-4.59-8.71-8.21-9.79-9.46-.68-.8-.37-1.43-.21-1.66,1.84-2.61,17.14-1.4,28.98,3.18,14.35,5.56,26.15,20.31,28.06,35.08l.08.63ZM21.15,13.37c-2.98,0-4.95.37-5.35.94-.03.04-.1.14.15.43,1.04,1.22,5.06,5,9.71,9.39,7.71,7.27,17.3,16.31,19.9,19.77,3.6,4.8,21.73,7.16,25.37,7.59-2.11-14.22-13.52-28.29-27.34-33.65-8.51-3.29-17.09-4.47-22.44-4.47Z"/><path class="cls-2" d="M130.69,374.73c.12-9.98-3.67-21.32-.24-28.57,4.16-8.79,1.85-14.34,1.85-14.34,0,0,.92-2.9,2.24-7.4,2.96-10.12,7.9-28.39,8.86-40.23.83-10.19.16-18.58-2.95-26.14-2.11-5.13-5.32-9.88-10-14.55,0,0-20.35,0-31.91,6.94-9.09,5.46-6.87,18.35-5.73,31.94,8.67-5.35,17.6-4.69,21.71,1.82,5.55,8.79,9.71,31.44,6.94,43.93-2.77,12.49,2.31,29.59-8.79,22.66-3.83-2.4-7.11-5.34-9.77-8.17-.9,7.42,4.67,7.75,3.04,28.98-1.85,24.05,6.01,37.92,12.95,43.47,4.95,3.96,7.07-9.49,8.89-21.55-2.48-.61-5.07-1.69-7.71-3.42-11.69-7.67-2.6-10.44,10.62-15.36Z"/><path class="cls-1" d="M120.58,416.27c-.65,0-1.32-.27-2-.82-3.65-2.92-15.38-14.71-13.13-43.9,1-12.99-.71-18.08-1.96-21.79-.8-2.37-1.43-4.25-1.07-7.21l.13-1.06.73.78c3.08,3.28,6.33,6,9.67,8.09,2.25,1.4,3.89,1.84,4.9,1.29,1.92-1.04,2-5.62,2.08-10.93.07-4.04.14-8.62,1.05-12.71,2.77-12.45-1.52-35.09-6.87-43.55-3.91-6.19-12.56-6.88-21.03-1.66l-.69.43-.07-.81c-.11-1.32-.23-2.64-.35-3.94-1.11-12.02-2.15-23.38,6.33-28.47,11.55-6.93,31.96-7.01,32.16-7.01h.21l.15.15c4.63,4.63,7.94,9.45,10.1,14.72,2.96,7.21,3.88,15.34,2.99,26.37-.97,11.93-5.98,30.39-8.88,40.33-1.13,3.86-1.97,6.57-2.19,7.25.37,1.05,1.92,6.44-1.93,14.56-2.14,4.52-1.38,10.73-.58,17.3.45,3.66.91,7.45.87,11.05v.34s-2.18.81-2.18.81c-7.54,2.79-13.49,5-13.81,7.83-.18,1.62,1.5,3.57,5.14,5.96,2.41,1.58,4.95,2.71,7.56,3.35l.44.11-.07.45c-1.8,11.95-3.45,21.19-6.84,22.52-.28.11-.57.17-.86.17ZM103.31,343.76c-.08,2.13.44,3.66,1.11,5.68,1.28,3.8,3.03,9,2.01,22.19-1.75,22.8,5.44,37.18,12.76,43.04.7.56,1.31.72,1.87.5,3.07-1.2,4.85-12.68,6.15-21.29-2.56-.69-5.06-1.82-7.42-3.37-4.05-2.66-5.82-4.85-5.59-6.91.39-3.44,6.29-5.63,14.46-8.65l1.53-.57c.01-3.44-.43-7.07-.86-10.58-.82-6.72-1.6-13.07.67-17.85,4-8.45,1.86-13.88,1.84-13.93l-.07-.17.05-.17s.94-2.95,2.23-7.39c2.89-9.9,7.88-28.28,8.84-40.13.88-10.87-.02-18.86-2.92-25.91-2.09-5.09-5.28-9.75-9.74-14.24-2.16.03-20.75.45-31.44,6.86-7.94,4.76-6.97,15.31-5.85,27.52.1,1.04.19,2.1.28,3.15,8.74-5.06,17.59-4.12,21.7,2.39,5.49,8.7,9.89,31.3,7,44.3-.89,3.99-.96,8.52-1.03,12.51-.1,5.85-.17,10.47-2.6,11.79-1.36.74-3.3.31-5.91-1.32-3.13-1.96-6.19-4.46-9.09-7.45Z"/><path class="cls-1" d="M112.67,350.78c11.1,6.94,6.01-10.17,8.79-22.66,2.77-12.49-1.39-35.14-6.94-43.93-4.11-6.51-13.04-7.16-21.71-1.82.31,3.68.54,7.42.44,11.07-.46,17.11,13.62,34.68,10.38,45.78-.38,1.3-.61,2.4-.73,3.39,2.65,2.83,5.93,5.78,9.77,8.17Z"/><path class="cls-1" d="M116.85,352.88c-1.19,0-2.66-.55-4.45-1.67h0c-3.41-2.13-6.73-4.91-9.87-8.26l-.16-.17.03-.23c.13-1.06.37-2.19.74-3.47,1.6-5.47-1.26-12.86-4.28-20.69-2.98-7.71-6.35-16.45-6.12-24.97.1-3.85-.16-7.73-.44-11.01l-.03-.31.26-.16c8.96-5.52,18.17-4.71,22.4,1.98,5.49,8.7,9.89,31.3,7,44.3-.89,3.99-.96,8.52-1.03,12.51-.1,5.85-.17,10.47-2.6,11.79-.43.23-.92.35-1.46.35ZM112.94,350.36c2.25,1.4,3.89,1.84,4.9,1.29,1.92-1.04,2-5.62,2.08-10.93.07-4.04.14-8.62,1.05-12.71,2.77-12.45-1.53-35.09-6.87-43.55-3.87-6.13-12.38-6.86-20.76-1.82.27,3.24.52,7.03.42,10.81-.23,8.32,3.11,16.96,6.06,24.58,3.08,7.99,6,15.53,4.31,21.33-.33,1.13-.55,2.14-.68,3.08,3.03,3.21,6.22,5.87,9.5,7.92h0Z"/><path class="cls-1" d="M130.69,374.73c-13.22,4.93-22.31,7.69-10.62,15.36,2.64,1.73,5.23,2.81,7.71,3.42.73-4.85,1.41-9.48,2.21-12.67.49-1.94.68-4,.7-6.12Z"/><path class="cls-1" d="M128.19,394.13l-.53-.13c-2.72-.67-5.36-1.85-7.86-3.49-4.05-2.66-5.82-4.85-5.59-6.91.39-3.44,6.29-5.63,14.46-8.65l2.54-.94v.73c-.04,2.38-.27,4.42-.73,6.23-.75,3.02-1.41,7.36-2.1,11.96l-.18,1.2ZM130.18,375.45l-1.16.43c-7.54,2.79-13.49,5-13.81,7.83-.18,1.62,1.5,3.57,5.14,5.96,2.24,1.47,4.6,2.55,7.02,3.21l.02-.11c.7-4.62,1.35-8.99,2.12-12.05.39-1.55.61-3.28.67-5.27Z"/><path class="cls-2" d="M90.01,250.44c-11.56-6.94-31.91-6.94-31.91-6.94-4.67,4.67-7.89,9.43-10,14.55,2.33-3.61,3.98-5.77,3.98-5.77,14.33,12.02,18.03,31.44,16.18,38.38s3.24,20.35,1.85,23.12c-.8,1.6-7.92,9.2-16.11,10.63,1.31,4.5,2.24,7.4,2.24,7.4,0,0-2.31,5.55,1.85,14.34,4.16,8.79-2.31,23.58.46,34.68,2.77,11.1,4.16,39.77,11.1,34.22,6.94-5.55,14.8-19.42,12.95-43.47-1.85-24.05,5.55-21.27,2.31-32.37-3.24-11.1,12.95-30.52,12.49-47.63-.46-17.11,4.16-34.22-7.4-41.16Z"/><path class="cls-1" d="M67.98,416.27c-.29,0-.58-.06-.86-.17-3.67-1.44-5.33-12.49-6.94-23.19-.69-4.6-1.35-8.94-2.1-11.95-1.33-5.31-.58-11.4.14-17.29.81-6.57,1.57-12.78-.57-17.3-3.85-8.12-2.3-13.52-1.93-14.56-.21-.68-1.06-3.39-2.19-7.25l-.16-.54.55-.1c7.85-1.38,14.92-8.71,15.75-10.36.53-1.06-.12-4.42-.81-7.99-.95-4.91-2.14-11.03-1.07-15.04,1.84-6.9-1.93-25.75-15.62-37.53-.59.79-1.94,2.67-3.65,5.31l-.88-.46c2.17-5.27,5.47-10.08,10.11-14.72l.15-.15h.21c.21,0,20.62.08,32.16,7.01,8.99,5.39,8.49,16.43,7.9,29.21-.18,4.03-.37,8.2-.26,12.36.23,8.61-3.74,17.91-7.25,26.12-3.51,8.21-6.83,15.97-5.25,21.39,1.52,5.21.75,7.5-.33,10.68-1.25,3.72-2.97,8.8-1.97,21.79,2.24,29.18-9.49,40.98-13.13,43.9-.68.54-1.35.82-2,.82ZM54.66,324.81c1.22,4.15,2.07,6.83,2.08,6.86l.06.17-.07.17c-.02.05-2.16,5.48,1.84,13.93,2.27,4.78,1.49,11.13.66,17.85-.71,5.8-1.45,11.8-.17,16.93.77,3.06,1.42,7.43,2.12,12.05,1.42,9.44,3.19,21.18,6.32,22.4.56.22,1.17.05,1.87-.5,7.32-5.86,14.52-20.24,12.76-43.04-1.01-13.19.74-18.39,2.02-22.19,1.05-3.12,1.74-5.17.31-10.08-1.68-5.76,1.71-13.68,5.29-22.06,3.47-8.11,7.4-17.31,7.17-25.7-.11-4.2.08-8.39.26-12.44.57-12.46,1.06-23.22-7.42-28.3-10.69-6.42-29.28-6.84-31.44-6.86-2.46,2.47-4.52,5-6.24,7.61l.34.29c14.34,12.02,18.26,31.71,16.35,38.89-1.01,3.79.15,9.78,1.09,14.59.79,4.06,1.41,7.26.73,8.62-.88,1.76-7.82,9.11-15.92,10.8Z"/><path class="cls-1" d="M70.13,313.79c1.39-2.77-3.7-16.18-1.85-23.12s-1.85-26.36-16.18-38.38c0,0-1.66,2.16-3.98,5.77-3.11,7.56-3.78,15.94-2.95,26.14.96,11.84,5.91,30.1,8.86,40.23,8.19-1.44,15.31-9.03,16.11-10.63Z"/><path class="cls-1" d="M53.67,324.99l-.13-.43c-2.9-9.94-7.91-28.4-8.88-40.33-.89-11.03.03-19.16,2.99-26.37,2.35-3.66,4.03-5.86,4.05-5.88l.32-.41.4.34c14.34,12.02,18.26,31.71,16.35,38.89-1.01,3.79.15,9.78,1.09,14.59.79,4.06,1.41,7.26.73,8.62h0c-.9,1.8-8.14,9.44-16.47,10.9l-.44.08ZM52.18,253.01c-.59.79-1.94,2.67-3.65,5.31-2.86,6.97-3.75,14.96-2.87,25.83.95,11.67,5.81,29.69,8.72,39.69,7.68-1.56,14.5-8.66,15.31-10.28.53-1.06-.12-4.42-.81-7.99-.95-4.91-2.14-11.03-1.07-15.04,1.84-6.9-1.93-25.75-15.62-37.53Z"/><path class="cls-2" d="M69.67,50.67c-5.55-6.47-15.72-23.12-24.05-24.51s2.77,12.95,7.86,16.18,16.18,8.32,16.18,8.32Z"/><path class="cls-1" d="M71.53,52.08l-2.07-.95c-.11-.05-11.19-5.14-16.24-8.36-4.08-2.6-12.25-12.48-10.94-15.91.29-.75,1.12-1.57,3.43-1.19,6.54,1.09,13.84,10.86,19.71,18.7,1.78,2.39,3.33,4.45,4.63,5.97l1.48,1.73ZM44.59,26.57c-.75,0-1.21.22-1.38.65-1.03,2.69,6.57,12.18,10.54,14.71,3.71,2.36,10.72,5.75,14.14,7.37-.99-1.25-2.08-2.71-3.28-4.32-5.46-7.3-12.93-17.29-19.07-18.31-.36-.06-.67-.09-.95-.09Z"/><path class="cls-2" d="M115.45,232.87c-5.55-3.7-30.06,4.62-33.76-7.4-3.7-12.02,8.79-7.4,6.94-16.65s1.39-14.8,9.71-17.57c7.05-2.35,18.42-.03,30.73,7.19-.6-10.46-.77-19.51.25-22.91,2.77-9.25,3.24-32.83-7.86-41.62-11.1-8.79-46.7-1.85-46.7-1.85-7.16,3.88-13.74,10.08-15.52,19.71,8.36,2.38,13.75,5.4,15.52,12.2,2.77,10.64,12.02,14.8,7.86,21.73-1.66,2.76-10.12,6.1-19.71,8.32-1.22,18.98-5.75,40.91-3.87,47.17,2.77,9.25,32.83,24.97,36.99,22.2,4.16-2.77,35.61-12.02,36.07-19.88.11-1.89-.15-6.27-.58-11.95-6.68,2.35-13.7,2.89-16.07,1.31ZM119.15,147.78c9.71,2.77,0,22.66-6.01,28.21-6.01,5.55-11.56-10.64-16.18-17.11-4.62-6.47,13.3-13.64,22.2-11.1Z"/><path class="cls-1" d="M94.56,264.21c-1.4,0-3.41-.47-5.99-1.4-10.52-3.79-27.86-14.29-30.02-21.48-1.16-3.87.04-13.42,1.43-24.47.91-7.19,1.93-15.33,2.42-22.88l.02-.37.36-.08c9.94-2.29,17.91-5.62,19.39-8.09,2.26-3.77.29-6.64-2.45-10.61-2.01-2.92-4.29-6.23-5.47-10.74-1.76-6.75-7.34-9.61-15.17-11.85l-.44-.12.08-.45c1.57-8.49,6.88-15.23,15.78-20.05l.14-.05c1.46-.29,35.96-6.88,47.11,1.95,10.97,8.68,11.06,32.06,8.03,42.15-.87,2.89-.94,10.33-.23,22.74l.05.93-.81-.47c-11.74-6.89-23.07-9.56-30.32-7.15-8.17,2.72-11.15,8.13-9.38,17,.92,4.6-1.59,6.12-3.81,7.46-2.58,1.56-5.02,3.03-3.14,9.14,2.24,7.28,12.96,6.69,21.58,6.22,5.27-.29,9.82-.53,11.98.91h0c2.24,1.49,9.25.88,15.63-1.37l.62-.22.05.65c.5,6.74.68,10.33.58,12.01-.35,5.98-16.2,12.15-27.78,16.65-4.13,1.61-7.4,2.88-8.52,3.62-.4.27-.99.4-1.74.4ZM63.38,194.42c-.5,7.47-1.51,15.48-2.4,22.57-1.38,10.94-2.57,20.39-1.47,24.06,2,6.66,18.95,17.06,29.4,20.82,5.11,1.84,6.53,1.31,6.84,1.1,1.21-.81,4.52-2.09,8.71-3.72,10.03-3.9,26.83-10.43,27.14-15.78.11-1.96-.19-6.7-.53-11.23-6.67,2.24-13.42,2.7-15.9,1.04-1.88-1.25-6.49-1-11.37-.74-8.96.49-20.12,1.09-22.59-6.93-2.11-6.86.91-8.69,3.58-10.29,2.22-1.34,4.13-2.49,3.35-6.4-1.87-9.33,1.42-15.27,10.04-18.14,7.35-2.45,18.64.08,30.34,6.77-.67-12.14-.57-19.19.32-22.16,2.96-9.87,2.93-32.67-7.69-41.08-10.55-8.35-44.39-2.11-46.22-1.77-8.42,4.58-13.51,10.93-15.11,18.88,7.93,2.31,13.58,5.35,15.43,12.43,1.13,4.34,3.36,7.58,5.33,10.43,2.72,3.95,5.07,7.36,2.48,11.69-1.99,3.31-11.75,6.6-19.67,8.46ZM110.6,177.63c-.2,0-.39-.02-.59-.05-3.55-.59-6.67-6.37-9.69-11.95-1.33-2.46-2.58-4.79-3.78-6.46-1.17-1.64-1.12-3.44.13-5.21,3.53-5,15.79-8.6,22.61-6.66h0c2.24.64,3.67,2.16,4.22,4.5,1.72,7.24-5.58,20.44-10.03,24.55-.92.85-1.88,1.27-2.88,1.27ZM114.97,147.77c-6.46,0-14.82,2.99-17.48,6.77-1,1.42-1.04,2.78-.13,4.06,1.23,1.72,2.5,4.07,3.84,6.56,2.77,5.12,5.9,10.93,8.97,11.44.89.15,1.75-.17,2.62-.97,4.86-4.48,11.28-17.1,9.74-23.59-.47-1.97-1.65-3.24-3.52-3.77h0c-1.19-.34-2.57-.5-4.04-.5Z"/><path class="cls-1" d="M82.62,185.7c4.16-6.94-5.09-11.1-7.86-21.73-1.77-6.8-7.16-9.82-15.52-12.2-.98,5.28-.51,11.6,2.11,19.14,1.98,5.68,2.14,14.06,1.56,23.11,9.59-2.21,18.06-5.56,19.71-8.32Z"/><path class="cls-1" d="M62.36,194.65l.04-.67c.68-10.51.17-18.01-1.53-22.92-2.48-7.12-3.19-13.64-2.13-19.39l.1-.54.53.15c8.17,2.33,13.99,5.35,15.87,12.56,1.13,4.34,3.36,7.58,5.33,10.43,2.72,3.95,5.07,7.36,2.48,11.69h0c-2.02,3.36-12.05,6.71-20.03,8.55l-.65.15ZM59.63,152.4c-.89,5.44-.15,11.61,2.19,18.34,1.72,4.93,2.25,12.34,1.63,22.64,9.63-2.29,17.29-5.52,18.74-7.93h0c2.26-3.77.29-6.64-2.45-10.61-2.01-2.92-4.29-6.23-5.47-10.74-1.72-6.59-7.09-9.48-14.64-11.69Z"/><path class="cls-1" d="M98.34,191.25c-8.32,2.77-11.56,8.32-9.71,17.57s-10.64,4.62-6.94,16.65c3.7,12.02,28.21,3.7,33.76,7.4,2.37,1.58,9.39,1.04,16.07-1.31-.69-9.26-1.81-21.98-2.45-33.12-12.31-7.22-23.68-9.54-30.73-7.19Z"/><path class="cls-1" d="M119.98,234.27c-2.11,0-3.81-.32-4.81-.99-1.88-1.25-6.49-1-11.37-.74-8.97.49-20.12,1.09-22.59-6.93-2.11-6.86.91-8.69,3.58-10.29,2.22-1.34,4.13-2.49,3.35-6.4-1.87-9.33,1.42-15.27,10.04-18.14h0c7.52-2.51,19.16.2,31.14,7.23l.23.14.02.27c.45,7.79,1.13,16.4,1.74,23.99.26,3.26.51,6.35.71,9.12l.03.38-.36.13c-4.17,1.47-8.43,2.24-11.7,2.24ZM109.54,231.33c2.69,0,4.88.25,6.19,1.12,2.2,1.47,8.99.9,15.26-1.24-.2-2.67-.44-5.62-.68-8.73-.6-7.51-1.27-16.01-1.72-23.74-11.66-6.79-22.89-9.41-30.09-7.01h0c-8.17,2.72-11.15,8.13-9.38,17,.92,4.6-1.59,6.12-3.81,7.46-2.58,1.56-5.02,3.03-3.14,9.14,2.24,7.28,12.96,6.69,21.58,6.22,2.07-.11,4.04-.22,5.79-.22Z"/><path class="cls-1" d="M113.13,175.99c6.01-5.55,15.72-25.43,6.01-28.21-8.89-2.54-26.82,4.62-22.2,11.1,4.62,6.47,10.17,22.66,16.18,17.11Z"/><path class="cls-1" d="M110.6,177.63c-.2,0-.39-.02-.59-.05-3.55-.59-6.67-6.37-9.69-11.95-1.33-2.46-2.58-4.79-3.78-6.46-1.17-1.64-1.12-3.44.13-5.21,3.53-5,15.78-8.6,22.61-6.66,2.24.64,3.67,2.16,4.22,4.5,1.72,7.24-5.58,20.44-10.03,24.55-.92.85-1.88,1.27-2.88,1.27ZM114.97,147.77c-6.46,0-14.82,2.99-17.48,6.77-1,1.42-1.04,2.78-.13,4.06,1.23,1.72,2.5,4.07,3.84,6.56,2.77,5.12,5.9,10.93,8.97,11.44.89.15,1.75-.17,2.62-.97h0c4.86-4.48,11.28-17.1,9.74-23.59-.47-1.97-1.65-3.24-3.52-3.77-1.19-.34-2.57-.5-4.04-.5Z"/><path class="cls-2" d="M127.63,52.06c1.85-14.33,13.41-29.13,27.75-34.68,14.33-5.55,30.98-5.55,28.21-2.31-2.77,3.24-25.43,23.58-29.59,29.13s-26.36,7.86-26.36,7.86Z"/><path class="cls-1" d="M127.05,52.63l.08-.63c1.91-14.77,13.71-29.53,28.06-35.08,11.84-4.58,27.13-5.79,28.98-3.18.17.23.48.86-.21,1.66-1.08,1.26-4.92,4.88-9.79,9.46-7.68,7.24-17.24,16.25-19.79,19.64-4.24,5.66-25.79,7.96-26.71,8.06l-.63.07ZM178,13.37c-5.35,0-13.94,1.18-22.44,4.47-13.83,5.35-25.23,19.43-27.34,33.65,3.64-.43,21.78-2.79,25.37-7.59,2.6-3.46,12.19-12.5,19.9-19.77,4.65-4.38,8.67-8.17,9.71-9.39.25-.29.18-.39.15-.43-.4-.57-2.38-.94-5.35-.94Z"/><path class="cls-2" d="M129.48,50.67c5.55-6.47,15.72-23.12,24.05-24.51s-2.77,12.95-7.86,16.18-16.18,8.32-16.18,8.32Z"/><path class="cls-1" d="M127.61,52.08l1.48-1.73c1.31-1.53,2.85-3.59,4.63-5.98,5.87-7.85,13.17-17.61,19.71-18.7,2.31-.38,3.14.43,3.43,1.19,1.32,3.43-6.86,13.31-10.94,15.91-5.06,3.22-16.13,8.31-16.25,8.36l-2.07.95ZM154.56,26.57c-.28,0-.6.03-.95.09-6.15,1.02-13.62,11.02-19.07,18.31-1.2,1.61-2.29,3.07-3.28,4.32,3.42-1.62,10.44-5.01,14.14-7.37,3.98-2.53,11.58-12.02,10.54-14.71-.17-.43-.63-.65-1.38-.65Z"/><path class="cls-1" d="M63.66,408.59s-9.25,27.28-4.62,31.91,21.27,4.62,23.58-1.85-6.94-31.44-6.94-31.44l-12.02,1.39Z"/><path class="cls-1" d="M70.4,444.25c-4.62,0-9.41-1.1-11.72-3.41-4.79-4.79,4.12-31.29,4.5-32.42l.1-.3,12.73-1.47.14.37c.38,1.03,9.28,25.22,6.94,31.79-.82,2.29-3.36,4.02-7.16,4.87-1.68.38-3.59.57-5.52.57ZM64.03,409.05c-2.59,7.73-8.21,27.53-4.64,31.09,2.71,2.71,10.34,3.91,16.32,2.57,3.46-.78,5.74-2.28,6.44-4.23,2.07-5.81-5.67-27.62-6.8-30.73l-11.32,1.3Z"/><path class="cls-1" d="M113.13,408.59s-9.25,27.28-4.62,31.91,21.27,4.62,23.58-1.85-6.94-31.44-6.94-31.44l-12.02,1.39Z"/><path class="cls-1" d="M119.88,444.25c-4.62,0-9.41-1.1-11.72-3.41-4.79-4.79,4.12-31.29,4.5-32.42l.1-.3,12.73-1.47.14.37c.38,1.03,9.28,25.22,6.94,31.79-.82,2.29-3.36,4.02-7.16,4.87-1.68.38-3.59.57-5.52.57ZM113.51,409.05c-2.59,7.73-8.21,27.53-4.64,31.09,2.71,2.71,10.34,3.91,16.32,2.57,3.46-.78,5.74-2.28,6.44-4.23,2.07-5.81-5.67-27.62-6.8-30.73l-11.32,1.3Z"/><path class="cls-2" d="M125.46,119.11s-6.01-8.79-11.56-18.96c-5.51-10.11-.07-35.27,12.25-47.84-5.26-3.57-23.54-10.88-30.12-10.88-7.4,0-24.51,10.64-24.51,10.64,12.49,12.49,18.03,37.92,12.49,48.09-5.55,10.17-11.56,18.96-11.56,18.96l-.7-.52c.3,1.37.54,2.5.7,3.29.92,4.62,53.18,0,53.18,0,0,0,.18-1.26.51-3.27l-.67.5Z"/><path class="cls-1" d="M86.59,124.45c-14.15,0-14.48-1.66-14.64-2.46-.16-.79-.4-1.91-.7-3.28l-.29-1.3,1.35,1c1.27-1.88,6.46-9.71,11.24-18.49,5.29-9.71.13-34.97-12.4-47.5l-.45-.45.54-.33c.7-.44,17.32-10.71,24.77-10.71,6.55,0,24.92,7.25,30.4,10.97l.5.34-.42.43c-12.32,12.58-17.38,37.69-12.17,47.25,4.79,8.77,9.98,16.6,11.24,18.49l1.24-.92-.2,1.21c-.33,2-.51,3.26-.51,3.26l-.06.39-.39.03c-.13.01-13.23,1.16-26.26,1.74-5.2.23-9.41.32-12.81.32ZM72.51,119.79c.17.8.31,1.48.42,2,.52,2.6,26.9,1.86,52.25-.37.05-.35.14-.93.26-1.68l-.1.08-.29-.43c-.06-.09-6.09-8.92-11.59-19-5.42-9.94-.6-34.79,11.91-47.99-5.93-3.74-23.12-10.47-29.34-10.47s-20.77,8.45-23.71,10.23c12.71,13.17,17.63,38.15,12.13,48.23-5.5,10.08-11.53,18.91-11.59,19l-.29.43-.05-.04Z"/><path class="cls-1" d="M84,100.15c5.55-10.17,0-35.61-12.49-48.09-9.25,22.66-10.17,29.59-6.94,39.31,2.68,8.05,5.69,20.56,7.16,27.23l.7.52s6.01-8.79,11.56-18.96Z"/><path class="cls-1" d="M72.56,119.82l-1.27-.94-.04-.18c-1.73-7.85-4.65-19.68-7.15-27.18-3.38-10.13-2.08-17.54,6.95-39.65l.28-.7.53.53c13.04,13.04,18.14,38.48,12.57,48.68-5.5,10.08-11.53,18.91-11.59,19l-.29.43ZM72.19,118.3l.13.1c1.27-1.88,6.46-9.71,11.24-18.49h0c5.22-9.57.28-34.25-11.87-46.96-9.17,22.58-9.68,29.12-6.64,38.25,2.49,7.48,5.39,19.22,7.13,27.09Z"/><path class="cls-1" d="M113.9,100.15c5.55,10.17,11.56,18.96,11.56,18.96l.67-.5c1.05-6.47,3.6-20.79,6.42-26.79,3.7-7.86,0-17.57-2.31-23.12-2.31-5.55-.92-12.49-2.77-15.26-.2-.31-.67-.7-1.32-1.14-12.32,12.57-17.76,37.74-12.25,47.84Z"/><path class="cls-1" d="M125.34,119.82l-.29-.43c-.06-.09-6.09-8.92-11.59-19h0c-5.48-10.06-.49-35.35,12.33-48.43l.29-.3.35.23c.75.51,1.22.92,1.46,1.28.96,1.44,1.11,3.79,1.28,6.5.18,2.83.37,6.03,1.54,8.84,1.88,4.51,6.28,15.07,2.3,23.53-2.82,5.99-5.4,20.64-6.38,26.65l-.03.2-1.25.93ZM114.34,99.91c4.79,8.77,9.98,16.6,11.24,18.49l.09-.07c1.01-6.18,3.59-20.68,6.43-26.72,3.79-8.05-.49-18.33-2.32-22.72-1.23-2.96-1.44-6.26-1.62-9.16-.16-2.57-.3-4.79-1.11-6.01-.08-.11-.28-.35-.84-.76-12.11,12.67-17.05,37.46-11.87,46.95h0Z"/><path class="cls-2" d="M68.28,126.97c0-9.25,22.66-24.97,31.91-21.27s27.28,12.02,27.75,21.27-12.02,18.5-27.28,17.57-21.27-.92-25.9-7.86l-6.47-9.71Z"/><path class="cls-1" d="M102.7,145.11c-.69,0-1.38-.02-2.08-.06l-2.26-.13c-13.79-.82-19.5-1.16-24.03-7.95l-6.56-9.84v-.15c0-5.39,6.86-11.95,12.73-15.92,6.17-4.18,14.63-7.9,19.86-5.81,10.28,4.11,27.59,12.4,28.06,21.71.18,3.53-1.47,7.2-4.63,10.32-4.97,4.92-12.91,7.84-21.11,7.84ZM68.78,126.83l6.39,9.58c4.25,6.38,9.81,6.71,23.25,7.5l2.26.13c8.63.52,17.22-2.35,22.42-7.49,2.96-2.93,4.5-6.32,4.33-9.56-.44-8.75-17.37-16.81-27.43-20.83-4.01-1.6-11.44.64-18.93,5.71-7.26,4.92-12.17,10.9-12.29,14.95Z"/><path class="cls-1" d="M87.7,120.96c-7.4,4.62-8.32,13.87-3.24,12.02s3.24-12.02,3.24-12.02Z"/><path class="cls-1" d="M83.24,133.73c-1.3,0-1.9-.86-2.12-1.32-1.21-2.48.65-8.34,6.31-11.87l.62-.39.13.73c.08.43,1.86,10.61-3.56,12.58-.54.2-1,.27-1.39.27ZM87.32,121.81c-4.47,3.13-6.29,8.13-5.3,10.16.38.77,1.14.95,2.27.54,3.87-1.41,3.32-8.37,3.03-10.7Z"/><path class="cls-1" d="M107.03,120.96c7.4,4.62,8.32,13.87,3.24,12.02s-3.24-12.02-3.24-12.02Z"/><path class="cls-1" d="M111.49,133.73c-.4,0-.86-.08-1.39-.27-5.42-1.97-3.64-12.15-3.56-12.58l.13-.73.62.39c5.66,3.54,7.52,9.4,6.31,11.87-.22.45-.81,1.32-2.12,1.32ZM107.41,121.81c-.3,2.33-.83,9.3,3.03,10.7,1.13.41,1.89.23,2.27-.54.99-2.03-.83-7.03-5.3-10.16Z"/><ellipse class="cls-2" cx="122.61" cy="82.35" rx="3.93" ry="11.33" transform="translate(-15.43 134.89) rotate(-54.73)"/><path class="cls-1" d="M129.93,90.15c-2.59,0-6.53-1.82-9.87-4.18-2.52-1.78-4.64-3.8-5.99-5.68-1.45-2.03-1.84-3.72-1.11-4.76,1.66-2.35,7.54-.1,12.22,3.21,4.68,3.31,8.76,8.1,7.1,10.45h0c-.48.67-1.3.97-2.34.97ZM115.3,75.56c-.74,0-1.27.18-1.52.54-.46.65-.05,2,1.1,3.6,1.29,1.8,3.33,3.73,5.76,5.45,5.21,3.69,9.89,4.78,10.82,3.45.94-1.32-1.65-5.37-6.86-9.05-3.8-2.69-7.31-3.99-9.3-3.99Z"/><ellipse class="cls-2" cx="123.2" cy="83.34" rx="2.83" ry="2.96" transform="translate(-15.99 135.79) rotate(-54.73)"/><path class="cls-1" d="M123.32,86.72c-.72,0-1.43-.23-2.04-.66-1.56-1.1-1.96-3.22-.9-4.72,1.06-1.5,3.19-1.82,4.75-.72.75.53,1.26,1.31,1.43,2.2.17.9-.01,1.79-.53,2.52-.52.73-1.3,1.21-2.2,1.34-.17.03-.34.04-.51.04ZM123.07,80.97c-.74,0-1.45.33-1.89.95-.74,1.05-.44,2.54.67,3.32.54.38,1.19.54,1.83.45.63-.09,1.17-.42,1.53-.93h0c.36-.5.49-1.13.36-1.75-.12-.63-.49-1.19-1.03-1.57-.45-.32-.97-.47-1.47-.47Z"/><ellipse class="cls-2" cx="72.67" cy="82.35" rx="11.33" ry="3.93" transform="translate(-34.59 58.75) rotate(-36.16)"/><path class="cls-1" d="M65.39,90.26c-1.05,0-1.82-.31-2.27-.93-.77-1.05-.41-2.7,1.03-4.78,1.32-1.91,3.42-3.96,5.9-5.78,4.63-3.38,10.47-5.73,12.16-3.4.75,1.03.39,2.73-1.03,4.78-1.32,1.91-3.42,3.96-5.9,5.78-2.49,1.82-5.08,3.19-7.3,3.87-1,.31-1.87.46-2.6.46ZM79.95,75.44c-1.98,0-5.5,1.36-9.3,4.14-2.4,1.75-4.41,3.72-5.67,5.54-1.12,1.62-1.52,2.98-1.05,3.62.47.64,1.88.68,3.77.1,2.11-.65,4.6-1.97,7-3.72,2.4-1.75,4.41-3.72,5.67-5.54,1.12-1.62,1.52-2.98,1.05-3.62h0c-.25-.34-.76-.52-1.46-.52Z"/><ellipse class="cls-2" cx="73.8" cy="82.11" rx="2.96" ry="2.83" transform="translate(-34.24 59.36) rotate(-36.16)"/><path class="cls-1" d="M73.67,85.49c-1.03,0-2.03-.46-2.67-1.33-.53-.72-.73-1.61-.57-2.51.16-.89.66-1.68,1.4-2.22.74-.54,1.65-.78,2.54-.66.9.12,1.69.58,2.22,1.3s.73,1.61.57,2.51c-.16.89-.66,1.68-1.4,2.22-.63.46-1.37.69-2.09.69ZM73.92,79.74c-.53,0-1.05.17-1.5.5-.53.39-.89.96-1.01,1.59-.11.63.03,1.25.39,1.74.76,1.04,2.27,1.23,3.36.43.53-.39.89-.96,1.01-1.59.11-.63-.03-1.25-.39-1.74h0c-.36-.5-.91-.82-1.54-.9-.11-.01-.22-.02-.32-.02Z"/><path class="cls-1" d="M121.9,36.37l-.45-.19c-1.74-.74-3.57-1.42-5.59-2.06l.3-.95c1.88.6,3.59,1.22,5.23,1.9.79-1.66,1.68-3.31,2.64-4.91l.86.51c-1.02,1.71-1.96,3.47-2.79,5.25l-.2.44Z"/><path class="cls-1" d="M105.98,31.57c-2.08-.44-4.14-.85-6.13-1.24l-2.41-.47-1.32.25-.19-.98,1.51-.29,2.6.51c2,.39,4.06.79,6.15,1.24l-.21.98Z"/><path class="cls-1" d="M80.26,34.93l-.22-.4c-.93-1.68-2-3.35-3.2-4.98l.81-.59c1.13,1.54,2.16,3.11,3.05,4.7,1.67-.73,3.43-1.4,5.23-1.99l.31.95c-1.92.63-3.79,1.35-5.55,2.14l-.42.19Z"/><path class="cls-1" d="M68.68,20.65c-2.89-2.61-6.12-5.1-9.58-7.39l.55-.83c3.51,2.32,6.77,4.83,9.7,7.48l-.67.74ZM48.56,7.3c-3.81-1.82-7.61-3.28-11.29-4.34l.28-.96c3.73,1.08,7.58,2.55,11.44,4.4l-.43.9ZM13.85,3.4l-.45-.89C16.82.76,20.86-.08,25.44,0l-.02,1c-4.39-.09-8.29.72-11.57,2.39Z"/><polygon class="cls-1" points="4.58 20.17 0 15.6 4.28 10.75 5.03 11.41 1.37 15.56 5.29 19.47 4.58 20.17"/><path class="cls-1" d="M39.86,52.91c-3.02-2.18-6.1-4.65-9.43-7.54l.66-.75c3.3,2.87,6.36,5.32,9.35,7.48l-.59.81ZM21.57,37.21c-2.55-2.47-5.26-5.17-8.53-8.5l.71-.7c3.26,3.33,5.97,6.02,8.51,8.48l-.69.72Z"/><path class="cls-1" d="M54.86,67.29l-.98-.18c.34-1.86.78-3.69,1.31-5.44-1.66-.67-3.36-1.45-5.07-2.34l.46-.89c1.83.95,3.65,1.78,5.41,2.47l.43.17-.14.44c-.57,1.84-1.05,3.79-1.41,5.77Z"/><path class="cls-1" d="M54.86,97.11c-1.04-5.42-1.65-10.31-1.87-14.94l1-.05c.22,4.59.82,9.43,1.85,14.8l-.98.19Z"/><path class="cls-1" d="M58.65,123.05l-.98-.22c.39-1.76,1.11-3.56,2.2-5.5-.52-1.81-1.04-3.68-1.56-5.58l.96-.26c.54,1.97,1.08,3.9,1.61,5.77l.06.2-.1.18c-1.09,1.92-1.81,3.69-2.19,5.41Z"/><path class="cls-1" d="M55.32,135.53l-.82-.57c1.08-1.56,2.29-3.07,3.61-4.5-.66-1.99-.9-3.89-.72-5.82l1,.09c-.17,1.88.08,3.73.77,5.69l.1.29-.21.22c-1.37,1.45-2.62,3-3.73,4.6Z"/><path class="cls-1" d="M49.61,222.34l-.99-.13c.29-2.2.62-4.49.96-6.85.2-1.38.4-2.77.6-4.17l.99.14c-.2,1.4-.4,2.79-.6,4.17-.34,2.36-.67,4.64-.96,6.84ZM52.5,200.26l-1-.09c.22-2.36.36-4.53.44-6.63l.03-.77.14-.82c.16-.92.26-1.87.32-2.84l1,.06c-.06,1-.17,1.99-.33,2.95l-.13.76-.02.7c-.08,2.12-.23,4.3-.45,6.68ZM51.41,178.19c-.32-1.59-.68-3.19-1.04-4.82-.44-1.95-.89-3.96-1.29-6.06l.98-.19c.4,2.08.85,4.09,1.28,6.03.37,1.64.73,3.25,1.05,4.84l-.98.2ZM48.91,156.17h-1c0-2.21.19-4.38.53-6.45l.04-.2c.28-1.51.65-3.01,1.1-4.46l.95.3c-.44,1.41-.8,2.87-1.07,4.34l-.03.19c-.34,2.01-.51,4.12-.52,6.28Z"/><path class="cls-1" d="M44.71,244.14l-.79-.62c1.18-1.5,2.48-2.97,3.86-4.36-.17-1.79-.23-3.69-.17-5.82l1,.03c-.06,2.18,0,4.12.19,5.93l.02.24-.17.17c-1.42,1.41-2.75,2.9-3.95,4.43Z"/><path class="cls-1" d="M71.91,456.11h-.1c-2.32,0-6.89-.23-11.51-1.78l.32-.95c4.48,1.5,8.93,1.72,11.19,1.72h.1v1ZM83.49,454.21l-.34-.94c3.9-1.42,6.98-3.58,9.15-6.42l.79.61c-2.29,2.99-5.52,5.26-9.61,6.75ZM50.49,447.88c-2.27-2.88-3.47-6.52-3.69-11.14l1-.04c.2,4.4,1.34,7.86,3.47,10.57l-.79.62ZM95.95,436.26l-.24-.05c0-3.13-.48-6.9-1.44-11.3l.98-.21c.97,4.47,1.46,8.31,1.46,11.42l-.76.14ZM48.87,425.26l-.98-.19c.24-1.25.52-2.57.85-4.05.52-2.28,1.14-4.74,1.85-7.29l.96.27c-.71,2.54-1.32,4.98-1.83,7.25-.33,1.47-.61,2.78-.84,4.02ZM91.27,413.74c-.48-1.54-1.01-3.17-1.59-4.88l-.06-.19.08-.18c.87-1.89,1.66-3.9,2.35-5.97l.95.31c-.68,2.04-1.45,4.02-2.31,5.89.56,1.65,1.07,3.22,1.53,4.72l-.96.3ZM50.63,402.73c-.74-3.62-1.3-7.39-1.71-11.54l1-.1c.41,4.11.96,7.86,1.7,11.44l-.98.2ZM48.19,379.56c-.13-4.09-.16-8.1-.18-11.63h1c.02,3.52.05,7.52.18,11.6l-1,.03ZM47.83,356.33c-.12-3.38-.32-6.25-.61-8.75l-.02-.16c-.09-.86-.2-1.73-.32-2.62l.99-.14c.13.9.24,1.79.33,2.66l.02.15c.29,2.53.49,5.41.61,8.82l-1,.04ZM44.64,333.45c-.88-3.71-1.91-7.59-2.88-11.25l.97-.26c.98,3.66,2,7.55,2.89,11.27l-.97.23ZM38.8,310.96c-1.09-4.31-1.92-7.91-2.62-11.35l.98-.2c.7,3.42,1.53,7.01,2.61,11.3l-.97.25ZM34.27,288.11c-.49-4.07-.73-7.8-.73-11.41v-.25s1,0,1,0v.24c0,3.57.24,7.26.72,11.28l-.99.12ZM35.54,264.98l-.98-.18c.72-3.97,1.86-7.75,3.37-11.21l.92.4c-1.48,3.4-2.59,7.1-3.3,11Z"/><path class="cls-1" d="M95.7,391.4l-.99-.15c.29-1.93.52-3.92.67-5.93l.37-4.9.62,4.87c.26,2.03.56,4.02.9,5.91l-.98.18c-.11-.62-.22-1.26-.32-1.9-.08.65-.17,1.29-.27,1.92Z"/><path class="cls-1" d="M123.37,456.61h-.44s.01-1,.01-1h.43c4,0,7.61-.9,10.72-2.68l.5.87c-3.27,1.87-7.04,2.82-11.22,2.82ZM111.17,454.32c-2.04-.7-4.21-1.58-6.46-2.62l-2.11-1.02-1.52-1.55c-.15-.15-.29-.31-.44-.46l.74-.67c.13.15.27.29.41.43l1.45,1.48,1.88.87c2.21,1.02,4.35,1.89,6.36,2.59l-.33.95ZM142.73,445l-.9-.44c1.55-3.18,2.4-6.98,2.52-11.3l1,.03c-.13,4.46-1.01,8.39-2.63,11.7ZM96.34,437.5c-.05-.73-.08-1.5-.08-2.29,0-2.78.33-5.93,1.01-9.64l.98.18c-.67,3.65-.99,6.75-.99,9.46,0,.77.03,1.51.08,2.22l-1,.07ZM143.21,421.58c-.74-3.61-1.83-7.42-3.23-11.35l.94-.34c1.42,3.97,2.52,7.83,3.27,11.48l-.98.2ZM100.93,414.22l-.96-.27c.44-1.61.9-3.2,1.37-4.72-.83-2.01-1.58-4.12-2.26-6.26l.95-.3c.68,2.18,1.45,4.31,2.29,6.34l.07.17-.05.17c-.48,1.57-.96,3.21-1.42,4.87ZM140.87,398.68l-.98-.18c.79-4.38,1.44-8.21,1.99-11.7l.99.15c-.55,3.5-1.2,7.33-1.99,11.72ZM144.46,375.17l-.99-.11.11-.95-.42-1.87c-.63-2.81-1.03-5.78-1.19-8.83l1-.05c.16,3,.55,5.92,1.17,8.67l.46,2.03-.13,1.11ZM143.39,351.59l-.99-.11c.41-3.58,1.06-7.43,1.99-11.75l.98.21c-.92,4.29-1.57,8.1-1.97,11.65ZM148.16,328.42l-.97-.25c.58-2.22,1.19-4.45,1.79-6.7.43-1.58.85-3.17,1.28-4.77l.97.26c-.43,1.6-.86,3.2-1.28,4.77-.61,2.25-1.21,4.48-1.79,6.69ZM154.11,305.41l-.98-.22c.96-4.23,1.69-8.03,2.23-11.62l.99.15c-.54,3.62-1.27,7.45-2.24,11.7ZM157.47,281.84l-1-.03c.03-.92.05-1.84.05-2.75,0-3.09-.18-6.13-.54-9.02l.99-.12c.36,2.93.55,6.01.55,9.14,0,.93-.02,1.86-.05,2.79ZM153.47,258.55c-1.19-3.71-2.76-7.34-4.67-10.79l.88-.48c1.94,3.51,3.54,7.2,4.75,10.97l-.95.3ZM144.6,236.85c-.08-3.34-.28-7.1-.65-11.83l1-.08c.36,4.75.57,8.52.65,11.88l-1,.02ZM142.94,213.19c-.33-3.66-.7-7.82-1.01-11.84l1-.08c.3,4.02.68,8.17,1.01,11.83l-1,.09ZM141.29,189.46c-.02-.98-.04-1.94-.04-2.87,0-3.51.17-6.3.53-8.53l.15-.57.97.25-.14.54c-.34,2.13-.51,4.86-.51,8.32,0,.92.01,1.87.04,2.84l-1,.02ZM144.58,165.9l-1-.06c.08-1.45.12-2.92.12-4.37,0-2.51-.12-5.01-.36-7.41l1-.1c.24,2.44.37,4.96.37,7.51,0,1.47-.04,2.96-.12,4.43Z"/><path class="cls-1" d="M141.06,142.45c-.6-1.95-1.31-3.81-2.11-5.54l-.09-.2.08-.2c.71-1.79,1.16-3.7,1.33-5.68l1,.08c-.17,2.01-.62,3.94-1.32,5.77.78,1.71,1.48,3.55,2.07,5.47l-.96.29Z"/><path class="cls-1" d="M139.99,118.18l-.99-.13c.5-3.67,1.7-8.01,2.98-12.61l.96.27c-1.27,4.56-2.46,8.86-2.95,12.47ZM146.07,93.17l-.98-.19c.86-4.33,1.27-8.17,1.27-11.72,0-.33,0-.65-.01-.98l1-.02c0,.33.01.67.01,1,0,3.62-.42,7.51-1.29,11.91Z"/><path class="cls-1" d="M143.93,67.86c-.28-.7-.59-1.4-.92-2.07l-.05-.2c-.06-1.16-.17-2.35-.36-3.63l-.07-.46.46-.1c2.05-.43,4-.91,5.79-1.43l.28.96c-1.68.49-3.5.94-5.4,1.35.15,1.1.25,2.14.3,3.16.32.66.63,1.35.91,2.04l-.93.37Z"/><path class="cls-1" d="M160.21,56.15l-.54-.84c1.91-1.23,3.46-2.6,4.61-4.06,1-1.23,2.27-2.62,3.87-4.25l.71.7c-1.58,1.6-2.83,2.97-3.8,4.17-1.21,1.55-2.84,2.99-4.85,4.28ZM177.57,39.44l-.68-.74.66-.6c2.94-2.69,5.72-5.24,8.1-7.61l.71.71c-2.39,2.39-5.18,4.94-8.13,7.64l-.66.6ZM193.97,21.75l-.88-.47c1.22-2.28,1.82-4.45,1.82-6.63,0-1.5-.27-2.99-.84-4.55l.94-.34c.6,1.68.9,3.28.9,4.89,0,2.35-.63,4.68-1.94,7.11ZM132.06,21.1l-.74-.68c2.76-3.01,5.8-5.71,9.05-8.05l.58.81c-3.19,2.3-6.18,4.96-8.9,7.92ZM151.31,7.34l-.39-.92c.46-.19.92-.38,1.38-.56l.98-.33c3.45-1.01,6.47-1.85,9.23-2.56l.25.97c-2.75.7-5.76,1.54-9.2,2.55l-.9.31c-.45.18-.9.36-1.35.55ZM186.11,2.19c-1.92-.7-4.11-1.06-6.53-1.06-1.51,0-3.18.13-5.12.39l-.13-.99c1.98-.27,3.7-.4,5.25-.4,2.53,0,4.84.38,6.87,1.12l-.34.94Z"/></g></svg>