<?xml version="1.0" encoding="UTF-8"?><svg id="Layer_2" xmlns="http://www.w3.org/2000/svg" viewBox="0 0 106.08 98.26"><defs><style>.cls-1{fill:#231f20;}.cls-2{fill:#fff;}</style></defs><g id="Layer_1-2"><path class="cls-2" d="M10.5,62.4v16c0,4.85,19.04,8.78,42.54,8.78s42.54-3.93,42.54-8.78v-16H10.5Z"/><path class="cls-1" d="M53.04,87.68c-21.15,0-43.04-3.47-43.04-9.28v-16.5h86.07v16.5c0,5.81-21.88,9.28-43.04,9.28ZM11,62.9v15.5c0,4,16.89,8.28,42.04,8.28s42.04-4.28,42.04-8.28v-15.5H11Z"/><ellipse class="cls-2" cx="53.04" cy="62.4" rx="42.54" ry="8.78"/><path class="cls-1" d="M53.04,71.68c-21.15,0-43.04-3.47-43.04-9.28s21.88-9.28,43.04-9.28,43.04,3.47,43.04,9.28-21.88,9.28-43.04,9.28ZM53.04,54.12c-25.14,0-42.04,4.28-42.04,8.28s16.89,8.28,42.04,8.28,42.04-4.28,42.04-8.28-16.89-8.28-42.04-8.28Z"/><path class="cls-2" d="M23.38,17.14v30.05c0,3.99,13.28,7.22,29.66,7.22s29.66-3.23,29.66-7.22v-30.05H23.38Z"/><path class="cls-1" d="M53.04,54.9c-14.82,0-30.16-2.89-30.16-7.72v-30.55h60.32v30.55c0,4.83-15.33,7.72-30.16,7.72ZM23.88,17.64v29.55c0,3.25,11.72,6.72,29.16,6.72s29.16-3.47,29.16-6.72v-29.55H23.88Z"/><ellipse class="cls-2" cx="53.04" cy="17.14" rx="29.66" ry="7.22"/><path class="cls-1" d="M53.04,24.85c-14.82,0-30.16-2.89-30.16-7.72s15.33-7.72,30.16-7.72,30.16,2.89,30.16,7.72-15.33,7.72-30.16,7.72ZM53.04,10.42c-17.44,0-29.16,3.47-29.16,6.72s11.72,6.72,29.16,6.72,29.16-3.47,29.16-6.72-11.72-6.72-29.16-6.72Z"/><path class="cls-2" d="M53.04,54.4c-16.38,0-29.66-3.23-29.66-7.22v11.71c0,3.99,13.28,7.22,29.66,7.22s29.66-3.23,29.66-7.22v-11.71c0,3.99-13.28,7.22-29.66,7.22Z"/><path class="cls-1" d="M53.04,66.61c-14.82,0-30.16-2.89-30.16-7.72v-11.71h1c0,3.25,11.72,6.72,29.16,6.72s29.16-3.47,29.16-6.72h1v11.71c0,4.83-15.33,7.72-30.16,7.72ZM23.88,49.24v9.65c0,3.25,11.72,6.72,29.16,6.72s29.16-3.47,29.16-6.72v-9.65c-3.63,3.58-16.58,5.66-29.16,5.66s-25.53-2.08-29.16-5.66Z"/><path class="cls-1" d="M50.57,98.26c-4.11-.05-8.15-.21-12.02-.48l.07-1c3.85.27,7.87.43,11.96.48v1ZM62.6,98.06l-.04-1c4.16-.19,8.18-.5,11.93-.92l.11.99c-3.78.43-7.81.74-12,.93ZM26.59,96.49c-2.03-.3-3.96-.64-5.75-1.01-1.46-.3-3.67-.76-6.06-1.48l.29-.96c2.35.71,4.53,1.16,5.98,1.46,1.77.37,3.69.7,5.69,1l-.15.99ZM86.49,95.22l-.21-.98c2.98-.64,7.39-1.73,11.18-3.84l.49.88c-3.91,2.17-8.41,3.29-11.46,3.95ZM4.05,88.33c-2.69-2.58-4.05-5.72-4.05-9.34v-1.91h1v1.91c0,3.34,1.26,6.23,3.74,8.61l-.69.72ZM105.72,82.08l-.97-.23c.22-.9.33-1.87.33-2.85v-9h1v9c0,1.07-.12,2.11-.36,3.09ZM1,65.08H0v-2.09c0-3.56,1.32-6.66,3.93-9.21l.7.71c-2.41,2.36-3.63,5.22-3.63,8.49v2.09ZM104.14,58.33c-1.35-3.1-4.19-5.67-8.44-7.63l.42-.91c4.48,2.07,7.49,4.81,8.93,8.14l-.92.4ZM93.2,48.96h-1v-12h1v12ZM13.88,47.51h-1v-12h1v12ZM93.2,24.96h-1v-7.24c0-1.59-.28-3.08-.84-4.44l.93-.38c.61,1.48.92,3.1.92,4.82v7.24ZM13.88,23.51h-1v-5.79c0-2.26.53-4.34,1.58-6.18l.87.49c-.96,1.69-1.45,3.6-1.45,5.69v5.79ZM83.01,5.62c-3.05-1.4-6.88-2.5-11.38-3.26l.17-.99c4.59.78,8.51,1.91,11.63,3.34l-.42.91ZM24.38,5.05l-.38-.93c3.21-1.3,7.16-2.3,11.72-2.99l.15.99c-4.49.67-8.36,1.66-11.5,2.93ZM59.74,1.15c-2.13-.1-4.37-.15-6.67-.15h-.04c-1.8,0-3.57.03-5.26.09l-.04-1c1.7-.06,3.48-.09,5.29-.09h.04c2.31,0,4.57.05,6.71.15l-.05,1Z"/></g></svg>